<svg width="900" height="250" viewBox="0 0 900 250" fill="none" xmlns="http://www.w3.org/2000/svg">
<rect width="900" height="250" rx="8" fill="#F0DB4F"/>
<path d="M0 8C0 3.58172 3.58172 0 8 0H142C146.418 0 150 3.58172 150 8V142C150 146.418 146.418 150 142 150H8C3.58172 150 0 146.418 0 142V8Z" fill="#F0DB4F"/>
<path d="M137.723 114.225C136.626 107.381 132.163 101.635 118.945 96.2738C114.354 94.1635 109.235 92.6523 107.709 89.173C107.167 87.1483 107.096 86.0076 107.438 84.7814C108.422 80.8033 113.17 79.5628 116.934 80.7035C119.358 81.5162 121.654 83.3842 123.037 86.3641C129.511 82.1722 129.496 82.2006 134.016 79.3205C132.362 76.754 131.478 75.5704 130.395 74.4726C126.502 70.1237 121.198 67.8851 112.714 68.0562C111.245 68.2416 109.763 68.4411 108.294 68.6266C104.059 69.696 100.024 71.9203 97.6569 74.9004C90.5561 82.9565 92.5809 97.058 101.222 102.861C109.734 109.249 122.239 110.704 123.836 116.678C125.39 123.993 118.46 126.359 111.573 125.518C106.497 124.463 103.674 121.882 100.623 117.191C95.005 120.442 95.005 120.442 89.2302 123.764C90.5991 126.759 92.039 128.113 94.3348 130.708C105.2 141.73 132.391 141.188 137.267 124.506C137.467 123.935 138.779 120.114 137.723 114.225V114.225ZM81.5447 68.9401H67.5143C67.5143 81.0599 67.4574 93.0942 67.4574 105.214C67.4574 112.928 67.8567 120 66.6019 122.167C64.5487 126.431 59.2303 125.903 56.8063 125.076C54.3396 123.864 53.0848 122.139 51.6304 119.701C51.2312 119.002 50.9318 118.46 50.8318 118.417C47.0249 120.742 43.232 123.08 39.425 125.404C41.3215 129.297 44.1161 132.676 47.6949 134.872C53.0419 138.08 60.2282 139.064 67.7426 137.338C72.6333 135.912 76.8537 132.961 79.0638 128.47C82.2577 122.581 81.5733 115.452 81.5447 107.567C81.616 94.7054 81.5447 81.8441 81.5447 68.9401Z" fill="#323330"/>
<path d="M613.406 13.5H622.781V45C622.781 47.8958 622.135 50.4583 620.844 52.6875C619.573 54.8958 617.771 56.6042 615.438 57.8125C613.104 59.0208 610.469 59.625 607.531 59.625C602.719 59.625 598.969 58.4062 596.281 55.9688C593.594 53.5104 592.25 50.0417 592.25 45.5625H601.688C601.688 47.7917 602.156 49.4375 603.094 50.5C604.031 51.5625 605.51 52.0938 607.531 52.0938C609.323 52.0938 610.75 51.4792 611.812 50.25C612.875 49.0208 613.406 47.2708 613.406 45V13.5ZM649.812 59C649.396 58.1875 649.094 57.1771 648.906 55.9688C646.719 58.4062 643.875 59.625 640.375 59.625C637.062 59.625 634.312 58.6667 632.125 56.75C629.958 54.8333 628.875 52.4167 628.875 49.5C628.875 45.9167 630.198 43.1667 632.844 41.25C635.51 39.3333 639.354 38.3646 644.375 38.3438H648.531V36.4062C648.531 34.8438 648.125 33.5938 647.312 32.6562C646.521 31.7188 645.26 31.25 643.531 31.25C642.01 31.25 640.812 31.6146 639.938 32.3438C639.083 33.0729 638.656 34.0729 638.656 35.3438H629.625C629.625 33.3854 630.229 31.5729 631.438 29.9062C632.646 28.2396 634.354 26.9375 636.562 26C638.771 25.0417 641.25 24.5625 644 24.5625C648.167 24.5625 651.469 25.6146 653.906 27.7188C656.365 29.8021 657.594 32.7396 657.594 36.5312V51.1875C657.615 54.3958 658.062 56.8229 658.938 58.4688V59H649.812ZM642.344 52.7188C643.677 52.7188 644.906 52.4271 646.031 51.8438C647.156 51.2396 647.99 50.4375 648.531 49.4375V43.625H645.156C640.635 43.625 638.229 45.1875 637.938 48.3125L637.906 48.8438C637.906 49.9688 638.302 50.8958 639.094 51.625C639.885 52.3542 640.969 52.7188 642.344 52.7188ZM676.688 47.9688L682.969 25.1875H692.406L681 59H672.375L660.969 25.1875H670.406L676.688 47.9688ZM715.5 59C715.083 58.1875 714.781 57.1771 714.594 55.9688C712.406 58.4062 709.562 59.625 706.062 59.625C702.75 59.625 700 58.6667 697.812 56.75C695.646 54.8333 694.562 52.4167 694.562 49.5C694.562 45.9167 695.885 43.1667 698.531 41.25C701.198 39.3333 705.042 38.3646 710.062 38.3438H714.219V36.4062C714.219 34.8438 713.812 33.5938 713 32.6562C712.208 31.7188 710.948 31.25 709.219 31.25C707.698 31.25 706.5 31.6146 705.625 32.3438C704.771 33.0729 704.344 34.0729 704.344 35.3438H695.312C695.312 33.3854 695.917 31.5729 697.125 29.9062C698.333 28.2396 700.042 26.9375 702.25 26C704.458 25.0417 706.938 24.5625 709.688 24.5625C713.854 24.5625 717.156 25.6146 719.594 27.7188C722.052 29.8021 723.281 32.7396 723.281 36.5312V51.1875C723.302 54.3958 723.75 56.8229 724.625 58.4688V59H715.5ZM708.031 52.7188C709.365 52.7188 710.594 52.4271 711.719 51.8438C712.844 51.2396 713.677 50.4375 714.219 49.4375V43.625H710.844C706.323 43.625 703.917 45.1875 703.625 48.3125L703.594 48.8438C703.594 49.9688 703.99 50.8958 704.781 51.625C705.573 52.3542 706.656 52.7188 708.031 52.7188ZM754.406 47.0625C754.406 45.2917 753.781 43.9375 752.531 43C751.281 42.0417 749.031 41.0417 745.781 40C742.531 38.9375 739.958 37.8958 738.062 36.875C732.896 34.0833 730.312 30.3229 730.312 25.5938C730.312 23.1354 731 20.9479 732.375 19.0312C733.771 17.0938 735.76 15.5833 738.344 14.5C740.948 13.4167 743.865 12.875 747.094 12.875C750.344 12.875 753.24 13.4688 755.781 14.6562C758.323 15.8229 760.292 17.4792 761.688 19.625C763.104 21.7708 763.812 24.2083 763.812 26.9375H754.438C754.438 24.8542 753.781 23.2396 752.469 22.0938C751.156 20.9271 749.312 20.3438 746.938 20.3438C744.646 20.3438 742.865 20.8333 741.594 21.8125C740.323 22.7708 739.688 24.0417 739.688 25.625C739.688 27.1042 740.427 28.3438 741.906 29.3438C743.406 30.3438 745.604 31.2812 748.5 32.1562C753.833 33.7604 757.719 35.75 760.156 38.125C762.594 40.5 763.812 43.4583 763.812 47C763.812 50.9375 762.323 54.0312 759.344 56.2812C756.365 58.5104 752.354 59.625 747.312 59.625C743.812 59.625 740.625 58.9896 737.75 57.7188C734.875 56.4271 732.677 54.6667 731.156 52.4375C729.656 50.2083 728.906 47.625 728.906 44.6875H738.312C738.312 49.7083 741.312 52.2188 747.312 52.2188C749.542 52.2188 751.281 51.7708 752.531 50.875C753.781 49.9583 754.406 48.6875 754.406 47.0625ZM783.656 52.3438C785.323 52.3438 786.677 51.8854 787.719 50.9688C788.76 50.0521 789.302 48.8333 789.344 47.3125H797.812C797.792 49.6042 797.167 51.7083 795.938 53.625C794.708 55.5208 793.021 57 790.875 58.0625C788.75 59.1042 786.396 59.625 783.812 59.625C778.979 59.625 775.167 58.0938 772.375 55.0312C769.583 51.9479 768.188 47.6979 768.188 42.2812V41.6875C768.188 36.4792 769.573 32.3229 772.344 29.2188C775.115 26.1146 778.917 24.5625 783.75 24.5625C787.979 24.5625 791.365 25.7708 793.906 28.1875C796.469 30.5833 797.771 33.7812 797.812 37.7812H789.344C789.302 36.0312 788.76 34.6146 787.719 33.5312C786.677 32.4271 785.302 31.875 783.594 31.875C781.49 31.875 779.896 32.6458 778.812 34.1875C777.75 35.7083 777.219 38.1875 777.219 41.625V42.5625C777.219 46.0417 777.75 48.5417 778.812 50.0625C779.875 51.5833 781.49 52.3438 783.656 52.3438ZM821.969 33.6562C820.74 33.4896 819.656 33.4062 818.719 33.4062C815.302 33.4062 813.062 34.5625 812 36.875V59H802.969V25.1875H811.5L811.75 29.2188C813.562 26.1146 816.073 24.5625 819.281 24.5625C820.281 24.5625 821.219 24.6979 822.094 24.9688L821.969 33.6562ZM835.875 59H826.812V25.1875H835.875V59ZM826.281 16.4375C826.281 15.0833 826.729 13.9688 827.625 13.0938C828.542 12.2188 829.781 11.7812 831.344 11.7812C832.885 11.7812 834.115 12.2188 835.031 13.0938C835.948 13.9688 836.406 15.0833 836.406 16.4375C836.406 17.8125 835.938 18.9375 835 19.8125C834.083 20.6875 832.865 21.125 831.344 21.125C829.823 21.125 828.594 20.6875 827.656 19.8125C826.74 18.9375 826.281 17.8125 826.281 16.4375ZM873.781 42.4062C873.781 47.6146 872.594 51.7917 870.219 54.9375C867.865 58.0625 864.677 59.625 860.656 59.625C857.24 59.625 854.479 58.4375 852.375 56.0625V72H843.344V25.1875H851.719L852.031 28.5C854.219 25.875 857.073 24.5625 860.594 24.5625C864.76 24.5625 868 26.1042 870.312 29.1875C872.625 32.2708 873.781 36.5208 873.781 41.9375V42.4062ZM864.75 41.75C864.75 38.6042 864.188 36.1771 863.062 34.4688C861.958 32.7604 860.344 31.9062 858.219 31.9062C855.385 31.9062 853.438 32.9896 852.375 35.1562V49C853.479 51.2292 855.448 52.3438 858.281 52.3438C862.594 52.3438 864.75 48.8125 864.75 41.75ZM890.219 16.875V25.1875H896V31.8125H890.219V48.6875C890.219 49.9375 890.458 50.8333 890.938 51.375C891.417 51.9167 892.333 52.1875 893.688 52.1875C894.688 52.1875 895.573 52.1146 896.344 51.9688V58.8125C894.573 59.3542 892.75 59.625 890.875 59.625C884.542 59.625 881.312 56.4271 881.188 50.0312V31.8125H876.25V25.1875H881.188V16.875H890.219Z" fill="black" fill-opacity="0.2"/>
<rect x="290" y="127" width="320" height="46" rx="8" fill="white"/>
<path d="M344.367 136.406L351.75 156.023L359.115 136.406H364.863V162H360.434V153.562L360.873 142.277L353.314 162H350.133L342.592 142.295L343.031 153.562V162H338.602V136.406H344.367ZM381.088 162C380.9 161.637 380.736 161.045 380.596 160.225C379.236 161.643 377.572 162.352 375.604 162.352C373.693 162.352 372.135 161.807 370.928 160.717C369.721 159.627 369.117 158.279 369.117 156.674C369.117 154.646 369.867 153.094 371.367 152.016C372.879 150.926 375.035 150.381 377.836 150.381H380.455V149.133C380.455 148.148 380.18 147.363 379.629 146.777C379.078 146.18 378.24 145.881 377.115 145.881C376.143 145.881 375.346 146.127 374.725 146.619C374.104 147.1 373.793 147.715 373.793 148.465H369.521C369.521 147.422 369.867 146.449 370.559 145.547C371.25 144.633 372.188 143.918 373.371 143.402C374.566 142.887 375.896 142.629 377.361 142.629C379.588 142.629 381.363 143.191 382.688 144.316C384.012 145.43 384.691 147 384.727 149.027V157.605C384.727 159.316 384.967 160.682 385.447 161.701V162H381.088ZM376.395 158.924C377.238 158.924 378.029 158.719 378.768 158.309C379.518 157.898 380.08 157.348 380.455 156.656V153.07H378.152C376.57 153.07 375.381 153.346 374.584 153.896C373.787 154.447 373.389 155.227 373.389 156.234C373.389 157.055 373.658 157.711 374.197 158.203C374.748 158.684 375.48 158.924 376.395 158.924ZM405.855 152.684C405.855 155.625 405.188 157.975 403.852 159.732C402.516 161.479 400.723 162.352 398.473 162.352C396.387 162.352 394.717 161.666 393.463 160.295V169.312H389.191V142.98H393.129L393.305 144.914C394.559 143.391 396.264 142.629 398.42 142.629C400.74 142.629 402.557 143.496 403.869 145.23C405.193 146.953 405.855 149.35 405.855 152.42V152.684ZM401.602 152.314C401.602 150.416 401.221 148.91 400.459 147.797C399.709 146.684 398.631 146.127 397.225 146.127C395.479 146.127 394.225 146.848 393.463 148.289V156.727C394.236 158.203 395.502 158.941 397.26 158.941C398.619 158.941 399.68 158.396 400.441 157.307C401.215 156.205 401.602 154.541 401.602 152.314ZM425.156 156.586L429.182 142.98H433.594L427.002 162H423.293L416.648 142.98H421.078L425.156 156.586ZM446.936 156.832C446.936 156.07 446.619 155.49 445.986 155.092C445.365 154.693 444.328 154.342 442.875 154.037C441.422 153.732 440.209 153.346 439.236 152.877C437.104 151.846 436.037 150.352 436.037 148.395C436.037 146.754 436.729 145.383 438.111 144.281C439.494 143.18 441.252 142.629 443.385 142.629C445.658 142.629 447.492 143.191 448.887 144.316C450.293 145.441 450.996 146.9 450.996 148.693H446.725C446.725 147.873 446.42 147.193 445.811 146.654C445.201 146.104 444.393 145.828 443.385 145.828C442.447 145.828 441.68 146.045 441.082 146.479C440.496 146.912 440.203 147.492 440.203 148.219C440.203 148.875 440.479 149.385 441.029 149.748C441.58 150.111 442.693 150.48 444.369 150.855C446.045 151.219 447.357 151.658 448.307 152.174C449.268 152.678 449.977 153.287 450.434 154.002C450.902 154.717 451.137 155.584 451.137 156.604C451.137 158.314 450.428 159.703 449.01 160.77C447.592 161.824 445.734 162.352 443.438 162.352C441.879 162.352 440.49 162.07 439.271 161.508C438.053 160.945 437.104 160.172 436.424 159.188C435.744 158.203 435.404 157.143 435.404 156.006H439.553C439.611 157.014 439.992 157.793 440.695 158.344C441.398 158.883 442.33 159.152 443.49 159.152C444.615 159.152 445.471 158.941 446.057 158.52C446.643 158.086 446.936 157.523 446.936 156.832ZM484.676 149.871C484.676 152.379 484.242 154.582 483.375 156.48C482.508 158.367 481.266 159.82 479.648 160.84C478.043 161.848 476.191 162.352 474.094 162.352C472.02 162.352 470.168 161.848 468.539 160.84C466.922 159.82 465.668 158.373 464.777 156.498C463.898 154.623 463.453 152.461 463.441 150.012V148.57C463.441 146.074 463.881 143.871 464.76 141.961C465.65 140.051 466.898 138.592 468.504 137.584C470.121 136.564 471.973 136.055 474.059 136.055C476.145 136.055 477.99 136.559 479.596 137.566C481.213 138.562 482.461 140.004 483.34 141.891C484.219 143.766 484.664 145.951 484.676 148.447V149.871ZM480.229 148.535C480.229 145.699 479.689 143.525 478.611 142.014C477.545 140.502 476.027 139.746 474.059 139.746C472.137 139.746 470.631 140.502 469.541 142.014C468.463 143.514 467.912 145.641 467.889 148.395V149.871C467.889 152.684 468.434 154.857 469.523 156.393C470.625 157.928 472.148 158.695 474.094 158.695C476.062 158.695 477.574 157.945 478.629 156.445C479.695 154.945 480.229 152.754 480.229 149.871V148.535ZM505.383 152.684C505.383 155.637 504.721 157.986 503.396 159.732C502.084 161.479 500.273 162.352 497.965 162.352C495.738 162.352 494.004 161.549 492.762 159.943L492.551 162H488.684V135H492.955V144.809C494.186 143.355 495.844 142.629 497.93 142.629C500.25 142.629 502.072 143.49 503.396 145.213C504.721 146.936 505.383 149.344 505.383 152.438V152.684ZM501.111 152.314C501.111 150.252 500.748 148.705 500.021 147.674C499.295 146.643 498.24 146.127 496.857 146.127C495.006 146.127 493.705 146.936 492.955 148.553V156.393C493.717 158.045 495.029 158.871 496.893 158.871C498.229 158.871 499.26 158.373 499.986 157.377C500.713 156.381 501.088 154.875 501.111 152.859V152.314ZM513.434 142.98V163.688C513.434 165.633 512.947 167.115 511.975 168.135C511.014 169.166 509.602 169.682 507.738 169.682C506.953 169.682 506.197 169.582 505.471 169.383V166.008C505.916 166.113 506.42 166.166 506.982 166.166C508.4 166.166 509.127 165.393 509.162 163.846V142.98H513.434ZM508.793 138.041C508.793 137.385 508.998 136.84 509.408 136.406C509.83 135.973 510.428 135.756 511.201 135.756C511.975 135.756 512.572 135.973 512.994 136.406C513.416 136.84 513.627 137.385 513.627 138.041C513.627 138.686 513.416 139.225 512.994 139.658C512.572 140.08 511.975 140.291 511.201 140.291C510.428 140.291 509.83 140.08 509.408 139.658C508.998 139.225 508.793 138.686 508.793 138.041ZM526.389 162.352C523.682 162.352 521.484 161.502 519.797 159.803C518.121 158.092 517.283 155.818 517.283 152.982V152.455C517.283 150.557 517.646 148.863 518.373 147.375C519.111 145.875 520.143 144.709 521.467 143.877C522.791 143.045 524.268 142.629 525.896 142.629C528.486 142.629 530.484 143.455 531.891 145.107C533.309 146.76 534.018 149.098 534.018 152.121V153.844H521.59C521.719 155.414 522.24 156.656 523.154 157.57C524.08 158.484 525.24 158.941 526.635 158.941C528.592 158.941 530.186 158.15 531.416 156.568L533.719 158.766C532.957 159.902 531.938 160.787 530.66 161.42C529.395 162.041 527.971 162.352 526.389 162.352ZM525.879 146.057C524.707 146.057 523.758 146.467 523.031 147.287C522.316 148.107 521.859 149.25 521.66 150.715H529.799V150.398C529.705 148.969 529.324 147.891 528.656 147.164C527.988 146.426 527.062 146.057 525.879 146.057ZM545.162 158.941C546.229 158.941 547.113 158.631 547.816 158.01C548.52 157.389 548.895 156.621 548.941 155.707H552.967C552.92 156.891 552.551 157.998 551.859 159.029C551.168 160.049 550.23 160.857 549.047 161.455C547.863 162.053 546.586 162.352 545.215 162.352C542.555 162.352 540.445 161.49 538.887 159.768C537.328 158.045 536.549 155.666 536.549 152.631V152.191C536.549 149.297 537.322 146.982 538.869 145.248C540.416 143.502 542.525 142.629 545.197 142.629C547.459 142.629 549.299 143.291 550.717 144.615C552.146 145.928 552.896 147.656 552.967 149.801H548.941C548.895 148.711 548.52 147.814 547.816 147.111C547.125 146.408 546.24 146.057 545.162 146.057C543.779 146.057 542.713 146.561 541.963 147.568C541.213 148.564 540.832 150.082 540.82 152.121V152.807C540.82 154.869 541.189 156.41 541.928 157.43C542.678 158.438 543.756 158.941 545.162 158.941ZM561.545 138.357V142.98H564.902V146.145H561.545V156.762C561.545 157.488 561.686 158.016 561.967 158.344C562.26 158.66 562.775 158.818 563.514 158.818C564.006 158.818 564.504 158.76 565.008 158.643V161.947C564.035 162.217 563.098 162.352 562.195 162.352C558.914 162.352 557.273 160.541 557.273 156.92V146.145H554.145V142.98H557.273V138.357H561.545Z" fill="black"/>
</svg>
